<?xml version="1.0" encoding="utf-8"?>
<!-- Generator: Adobe Illustrator 16.0.0, SVG Export Plug-In . SVG Version: 6.00 Build 0)  -->
<!DOCTYPE svg PUBLIC "-//W3C//DTD SVG 1.1//EN" "http://www.w3.org/Graphics/SVG/1.1/DTD/svg11.dtd">
<svg version="1.1" id="圖層_1" xmlns="http://www.w3.org/2000/svg" xmlns:xlink="http://www.w3.org/1999/xlink" x="0px" y="0px"
	 width="561.3676758px" height="265.9775391px" viewBox="0 0 561.3676758 265.9775391"
	 enable-background="new 0 0 561.3676758 265.9775391" xml:space="preserve">
<linearGradient id="SVGID_1_" gradientUnits="userSpaceOnUse" x1="-2.0610352" y1="272.5595703" x2="175.7108765" y2="272.5595703" gradientTransform="matrix(-0.391232 0.668174 -0.668174 -0.391232 266.3677368 113.0346375)">
	<stop  offset="0" style="stop-color:#FDEABE"/>
	<stop  offset="0.699219" style="stop-color:#F29600"/>
	<stop  offset="1" style="stop-color:#D56100"/>
</linearGradient>
<path fill="url(#SVGID_1_)" d="M27.2060547,119.6381836c-8.7070313-7.5253906-13.390625-29.3925781-4.6914063-46.6171875
	c-2.0742188,23.1484375,13.0625,41.3632813,23.65625,46.8007813c5.2617188-0.4882813,13.4101563-1.890625,20.1914063-4.5117188
	c-29.4140625-14.4882813-41.5273438-72.2832031,6.234375-115.0585938
	C5.8037109,22.6479492-9.8681641,97.347168,5.3544922,114.8120117
	C11.7138672,116.9233398,19.2763672,118.7612305,27.2060547,119.6381836"/>
<linearGradient id="SVGID_2_" gradientUnits="userSpaceOnUse" x1="5.3388672" y1="102.1982422" x2="138.1708984" y2="102.1982422">
	<stop  offset="0" style="stop-color:#FDEABE"/>
	<stop  offset="0.699219" style="stop-color:#F29600"/>
	<stop  offset="1" style="stop-color:#D56100"/>
</linearGradient>
<path fill="url(#SVGID_2_)" d="M5.3388672,114.831543L5.3388672,114.831543
	c52.7929688,46.6459961,125.3164063,22.8686523,132.8320313,0.953125c-1.3515625-6.5625-3.5429688-14.03125-6.7460938-21.3339844
	c-2.1640625,11.2988281-18.7578125,26.2910156-38.0273438,27.3652344
	c21.0859375-9.7773438,29.2929688-31.9882813,28.703125-43.8828125c-3.0507813-4.3125-8.3398438-10.6679688-14-15.2304688
	C110.2568359,95.4174805,66.2646484,134.8081055,5.3388672,114.831543z"/>
<linearGradient id="SVGID_3_" gradientUnits="userSpaceOnUse" x1="-416.9487305" y1="637.7666016" x2="-239.0699005" y2="637.7666016" gradientTransform="matrix(-0.3845649 -0.672033 0.672033 -0.3845649 -461.6465759 87.9507751)">
	<stop  offset="0" style="stop-color:#FDEABE"/>
	<stop  offset="0.699219" style="stop-color:#F29600"/>
	<stop  offset="1" style="stop-color:#D56100"/>
</linearGradient>
<path fill="url(#SVGID_3_)" d="M41.6435547,52.8510742v0.0019531c27.2539063-18.2226563,83.3632813,0.1796875,96.5273438,62.9316406
	C152.1669922,46.737793,95.3154297-4.1821289,72.5771484,0.2709961
	c-5.0078125,4.453125-10.3789063,10.0820313-15.1054688,16.5078125c10.8710938-3.7753906,32.1523438,3.1015625,42.71875,19.2480469
	c-19.0117188-13.3691406-42.3515625-9.3691406-52.359375-2.9140625
	C45.6240234,37.909668,42.7646484,45.6674805,41.6435547,52.8510742"/>
<path fill="#004E96" d="M173.2451172,97.0229492h25.1992188c7.3554688,0,22.1445313,1.0976563,29.2304688,8.8574219
	c6.4453125,7.0703125,6.5429688,16.9082031,6.796875,23.4746094v15.1030273
	c-0.2539063,5.078125-0.3515625,16.109375-6.0898438,22.4765625c-6.6289063,7.2578125-18.375,9.046875-27.5976563,9.046875
	h-37.6914063v-67.8608398C163.0927734,100.4995117,167.1240234,97.0229492,173.2451172,97.0229492 M195.1669922,165.6767578
	c7.5195313,0,15.1445313,0.2109375,19.0859375-7.4257813c3.8515625-7.5195313,3.6757813-35.4194336,0.0898438-42.8588867
	c-4.3085938-8.9628906-14.0703125-8.0292969-19.3554688-8.0292969l-14.5390625,0.0390625v58.2749023H195.1669922z"/>
<path fill="#004E96" d="M330.7270508,97.1381836c5.8476563,0,10.59375-0.0175781,10.59375-0.0175781
	s24.3125,37.6835938,29.0585938,45.0014648c2.1289063,3.2421875,5.1445313,8.9375,5.1445313,8.9375V97.1381836h13.2929688
	v78.8432617H371.121582l-37.8203125-58.4291992v58.4291992h-12.8085938v-67.8354492
	C320.4926758,100.6889648,323.0043945,97.1381836,330.7270508,97.1381836"/>
<path fill="#004E96" d="M449.605957,124.8862305c-0.6953125-5.0664063-1.265625-12.1035156-7.1640625-16.1171875
	c-5.3867188-3.6542969-16.5078125-3.9785156-22.5351563-0.1113281c-6.0625,3.8945313-7.3164063,14.71875-7.3164063,24.390625
	v7.6518555c0,9.34375,0.703125,19.4882813,8.1601563,23.828125c3.6757813,2.140625,6.8359375,2.5703125,11.828125,2.515625
	c7.3007813-0.0703125,13.5976563-2.90625,17.1953125-5.8085938v-16.5507813h-16.40625v-11.7358398h31.7304688v36.0327148
	c-8.3632813,5.3398438-17.703125,8.4726563-32.3398438,8.4726563c-10.3867188,0-19.4765625-0.5703125-26.3476563-5.3398438
	c-8.9296875-6.2109375-11.2109375-13.9492188-11.2109375-28.546875V129.565918
	c0-14.3300781,1.5976563-23.3867188,10.7578125-28.9453125c4.6796875-2.84375,10.734375-4.9550781,24.265625-4.9550781
	c15.8320313,0,21.6484375,1.7480469,26.1875,4.96875c8.7617188,6.2148438,8.6875,16.1992188,8.6875,24.2519531H449.605957"/>
<path fill="#004E96" d="M524.8286133,78.4448242h-9.265625c-8.6992188,0-13.921875,5.5351563-16.1992188,11.9648438
	c-1.2539063,3.546875-30.421875,85.5795898-30.421875,85.5795898h15.7070313
	c0.8476563-3.5078125,3.2773438-11.9765625,5.2382813-17.9023438c1.3398438-4.3007813,4.8203125-13.5507813,4.8203125-13.5507813
	l36.2734375,0.0078125c0,0,3.6484375,9.5390625,5.140625,13.859375c2.078125,5.8515625,5.0351563,14.7773438,5.96875,17.5859375
	h19.2773438L524.8286133,78.4448242 M526.7036133,132.8413086h-27.984375l1.5078125-4.1601563l0.671875-1.8867188l10.5625-29.46875
	l1.1328125-3.2148438l1.171875,3.2148438l10.6640625,29.46875l0.6953125,1.8867188L526.7036133,132.8413086z"/>
<path fill="#004E96" d="M303.6918945,100.8334961c-4.578125-3.0878906-11.1953125-4.4765625-16.671875-4.9785156
	c-2.3320313-0.1835938-4.3925781-0.1835938-7.2670898-0.1835938h-1.5976563c-0.2265625,0-0.4570313,0.0019531-0.6835938,0.0039063
	c-0.2265625-0.0019531-0.4609375-0.0039063-0.6796875-0.0039063h-1.6054688c-2.875,0-4.9296875,0-7.2617188,0.1835938
	c-5.4726563,0.5019531-12.0976563,1.890625-16.671875,4.9785156c-10.2382813,6.5449219-10.3984375,18.2929688-10.3984375,28.21875
	v15.1245117c0,6.7578125,0.3554688,17.4101563,6.8007813,24.265625c7.7382813,8.375,18.9140625,8.9140625,29.8085938,8.9492188
	h0.015625c10.8959961-0.0351563,22.0678711-0.5742188,29.8139648-8.9492188
	c6.4414063-6.8554688,6.796875-17.5078125,6.796875-24.265625v-15.1245117
	C314.090332,119.1264648,313.9301758,107.378418,303.6918945,100.8334961 M289.496582,163.9658203
	c-2.6601563,1.9453125-7.3613281,2.9453125-12.0249023,3.046875c-4.6640625-0.1015625-9.359375-1.1015625-12.0234375-3.046875
	c-7.3398438-5.3671875-7.1640625-17.1914063-7.1640625-24.453125v-5.6772461c0-6.7539063-0.0898438-19.8808594,7.1640625-25.0507813
	c1.8515625-1.296875,6.0625-2.4960938,8.2734375-2.7050781c0.7617188-0.109375,2.1054688-0.1816406,3.7421875-0.140625h0.015625
	c1.6328125-0.0410156,2.9804688,0.03125,3.7460938,0.140625c2.2045898,0.2089844,6.4194336,1.4082031,8.2709961,2.7050781
	c7.25,5.1699219,7.1640625,18.296875,7.1640625,25.0507813v5.6772461
	C296.6606445,146.7744141,296.8325195,158.5986328,289.496582,163.9658203z"/>
<path fill="#231815" d="M191.0224609,227.1923828c11.0117188,1.6640625,19.5742188,5.8203125,19.5742188,16.9453125
	c0,7.4453125-4.0039063,12.5039063-10.5664063,16.0546875c-5.6679688,3.1132813-13.0039063,4.4570313-21.7890625,4.4570313h-24.8125
	v-2.921875c9.5625-0.6679688,9.6796875-1.1679688,9.6796875-10.3984375v-42.7304688
	c0-9.234375,0.1015625-9.53125-8.7890625-10.1992188v-3.1210938h28.8125c8.3398438,0,13.2304688,1.3359375,16.6796875,3.7890625
	c3.8867188,2.671875,6.2265625,6.828125,6.2265625,11.9453125c0,10.5625-8.8984375,14.171875-15.015625,15.9453125V227.1923828
	 M178.5732422,225.8564453c12.1171875,0,17.2304688-4.171875,17.2304688-13.5078125
	c0-7.5664063-4.21875-13.5078125-14.7851563-13.5078125c-2.6679688,0-6.0078125,0.4453125-7.0117188,1.109375
	c-1.1132813,0.671875-1.4453125,1.890625-1.4453125,5.5585938v20.3476563H178.5732422z M172.5615234,251.1142578
	c0,8,2.7929688,9.8671875,10.015625,9.75c9.0078125,0,17.125-3.9414063,17.125-15.6132813
	c0-11.3398438-7.7851563-15.6210938-21.3515625-15.6210938h-5.7890625V251.1142578z"/>
<path fill="#231815" d="M250.0146484,265.9775391c-1.6640625,0-4-0.9960938-5.21875-2.109375
	c-1.4453125-1.4492188-2.1171875-3.0039063-2.6757813-5.0039063c-4.4453125,3-10.171875,7.1132813-13.5078125,7.1132813
	c-7.8945313,0-13.3476563-6.5585938-13.3476563-13.5625c0-5.3398438,2.8984375-8.7851563,9.0078125-10.8945313
	c6.671875-2.2265625,15.1796875-5.2226563,17.6328125-7.2304688v-1.890625c0-8.1132813-4.0703125-12.5585938-9.7382813-12.5585938
	c-2.1132813,0-3.78125,0.78125-4.890625,2.109375c-1.4414063,1.4492188-2.3320313,3.8984375-3.3398438,7.2265625
	c-0.5585938,1.78125-1.6640625,2.5585938-3.21875,2.5585938c-2,0-4.7851563-2.1132813-4.7851563-4.6679688
	c0-1.671875,1.3398438-2.8984375,3.4492188-4.4453125c3.1132813-2.2265625,10.2265625-6.3398438,16.5664063-7.7890625
	c3.3398438,0,7.0625,1,9.5117188,3c3.8867188,3.34375,5,7.7890625,5,13.6796875v20.5703125
	c0,5,2.0039063,6.671875,3.8945313,6.671875c1.3359375,0,2.890625-0.671875,4.0039063-1.328125l1.109375,2.8789063
	L250.0146484,265.9775391 M241.9052734,238.0751953c-2.3359375,1.21875-8.0703125,3.5546875-10.40625,4.6640625
	c-4.3359375,2-6.78125,4.0039063-6.78125,8.1210938c0,5.78125,4.4492188,8.4414063,7.8984375,8.4414063
	c2.890625,0,7.171875-1.875,9.2890625-3.9921875V238.0751953z"/>
<path fill="#231815" d="M291.7348633,264.6494141v-2.921875c6.5546875-0.6679688,7.3359375-1.5351563,7.3359375-9.1953125
	v-18.4570313c0-7.6796875-2.6601563-12.6796875-10.1132813-12.6796875c-4.4492188,0-8.9936523,2.7734375-12.3295898,5.671875
	v26.015625c0,7.5625,0.6679688,7.9765625,7.2319336,8.6445313v2.921875h-23.7670898v-2.921875
	c7.5585938-0.7773438,7.7578125-1.3085938,7.7578125-8.6445313v-22.90625c0-7.1132813-0.671875-7.4453125-6.6757813-8.5625
	v-2.5546875c5.3359375-1,10.5625-2.3359375,15.453125-4.5507813v8.890625
	c2.2265625-1.6679688,4.6757813-3.3320313,7.4467773-5.2304688c3.1210938-1.9960938,6.2148438-3.3359375,9.4375-3.3359375
	c8.8984375,0,14.3476563,6.1171875,14.3476563,16.7929688v21.4570313c0,7.5625,0.2929688,7.9765625,6.75,8.6445313v2.921875
	H291.7348633"/>
<path fill="#231815" d="M356.934082,264.6494141c-5.2226563-5.5742188-12.1914063-14.3476563-18.421875-21.8007813
	c-1.5585938-1.7734375-2.4453125-2.4453125-3.4492188-2.328125c-0.4414063-0.1171875-1.1171875,0-1.7773438,0.21875v12.34375
	c0,7.3359375,0.890625,7.9765625,8,8.6445313v2.921875h-24.0625v-2.921875
	c7.4492188-0.6679688,7.3867188-1.5351563,7.3867188-8.6445313v-46.15625c0-7.3359375-0.5546875-8-7.328125-8.5585938v-3.09375
	c5.3242188-0.5585938,11.6679688-2.4453125,16.0039063-3.8945313v46.46875c3.3359375-0.6640625,5.3398438-2,7.0039063-3.7734375
	c2.4414063-2.4492188,5.78125-6.7851563,7.8984375-9.7890625c2.3359375-3.4453125,1.9921875-4.34375-3.3398438-4.890625v-2.8828125
	l22.6835938-1.0078125v2.78125c-7.6679688,1.21875-10.0078125,2.3359375-14.3476563,6.4453125
	c-2.7773438,2.8984375-4.6601563,5.0039063-9.5585938,10.5625c2.7773438,3.890625,13.671875,16.6796875,17.3515625,20.3515625
	c4.1054688,4.109375,6.4453125,5.8632813,10.6679688,6.0820313v2.921875H356.934082"/>
</svg>
